<svg viewBox="0 0 32 32" fill="none" xmlns="http://www.w3.org/2000/svg">




<g transform="matrix(2.2857142857142856,0,0,2.2857142857142856,0,0)"><path d="M3.2075 1.0135C4.51011 0.865883 5.93914 0.75 7.25 0.75C8.561 0.75 9.99116 0.865906 11.2944 1.01355C12.1916 1.11518 12.8958 1.8258 12.9936 2.72337C13.1347 4.01918 13.25 5.44675 13.25 6.75C13.25 8.05358 13.1347 9.48389 12.9935 10.7813C12.8958 11.6789 12.1916 12.3895 11.2943 12.4902C9.99107 12.6365 8.56096 12.75 7.25 12.75C6.10673 12.75 4.87359 12.6637 3.71281 12.5446L0.75 13.25L1.43668 10.0913C1.32928 8.9885 1.25004 7.82607 1.25004 6.75C1.25004 5.44673 1.36626 4.01915 1.50797 2.72333C1.60611 1.8258 2.31036 1.11517 3.2075 1.0135Z" fill="#D7E0FF" stroke="#4147D5" stroke-width="1.5" stroke-linejoin="round"></path><path d="M7.24686 7.15856C7.24686 6.7975 7.54051 6.57603 8.05859 6.22986C8.53914 5.90877 8.79262 5.49225 8.67987 4.9254C8.56712 4.35856 8.09875 3.89019 7.5319 3.77744C6.64211 3.60044 5.78577 4.30322 5.78577 5.21044" stroke="#4147D5" stroke-width="1.5" stroke-linecap="round" stroke-linejoin="round"></path><path d="M7.2461 9.60318C7.11334 9.60318 7.00571 9.49555 7.00571 9.36279C7.00571 9.23003 7.11334 9.12241 7.2461 9.12241" stroke="#4147D5" stroke-width="1.5" stroke-linecap="round" stroke-linejoin="round"></path><path d="M7.24613 9.60321C7.37889 9.60321 7.48651 9.49558 7.48651 9.36282C7.48651 9.23006 7.37889 9.12244 7.24613 9.12244" stroke="#4147D5" stroke-width="1.5" stroke-linecap="round" stroke-linejoin="round"></path></g></svg>